<?xml version="1.0" encoding="utf-8"?>
<!-- Generator: Adobe Illustrator 28.4.1, SVG Export Plug-In . SVG Version: 6.00 Build 0)  -->
<svg version="1.1"
	 id="svg10" xmlns:cc="http://creativecommons.org/ns#" xmlns:svg="http://www.w3.org/2000/svg" xmlns:rdf="http://www.w3.org/1999/02/22-rdf-syntax-ns#" xmlns:dc="http://purl.org/dc/elements/1.1/"
	 xmlns="http://www.w3.org/2000/svg" xmlns:xlink="http://www.w3.org/1999/xlink" x="0px" y="0px" viewBox="0 0 364.1 229"
	 style="enable-background:new 0 0 364.1 229;" xml:space="preserve">
<style type="text/css">
	.st0{fill:#FFFFFF;}
</style>
<path class="st0" d="M106,0c10.5,0,20.2,0.8,29.1,3.2c8.9,1.6,16.2,4.9,22.7,8.9s11.3,9.7,14.6,17c3.2,7.3,4.9,16.2,4.9,25.9
	c0,11.3-2.4,21-8.1,28.3c-4.9,7.3-12.9,13.8-22.7,18.6c13.8,4,24.3,11.3,30.7,21s10.5,21.8,10.5,35.6c0,11.3-2.4,21-6.5,29.1
	c-4,8.1-10.5,15.4-17.8,20.2c-7.3,4.9-16.2,8.9-25.9,11.3c-9.7,2.4-19.4,4-29.1,4L0,223.3V0H106z M99.5,90.6
	c8.9,0,16.2-2.4,21.8-6.5s8.1-11.3,8.1-20.2c0-4.9-0.8-9.7-2.4-12.9c-1.6-3.2-4-5.7-7.3-8.1c-3.2-1.6-6.5-3.2-10.5-4
	s-8.1-0.8-12.9-0.8H49.4v52.6C49.4,90.6,99.5,90.6,99.5,90.6z M101.9,186.1c4.9,0,9.7-0.8,13.8-1.6c4-0.8,8.1-2.4,11.3-4.9
	s5.7-4.9,8.1-8.9c1.6-4,3.2-8.9,3.2-14.6c0-11.3-3.2-19.4-9.7-25.1c-6.5-4.9-15.4-7.3-25.9-7.3H49.4V186h52.5V186.1z"/>
<path class="st0" d="M258.1,185.3c6.5,6.5,16.2,9.7,29.1,9.7c8.9,0,17-2.4,23.5-6.5c6.5-4.9,10.5-9.7,12.1-14.6h39.6
	c-6.5,19.4-16.2,33.2-29.1,42.1c-12.9,8.1-28.3,12.9-46.9,12.9c-12.9,0-24.3-2.4-34.8-6.5c-10.5-4-18.6-9.7-25.9-17.8
	c-7.3-7.3-12.9-16.2-16.2-26.7c-4-10.5-5.7-21.8-5.7-34.8c0-12.1,1.6-23.5,5.7-34s9.7-19.4,17-27.5c7.3-7.3,16.2-13.8,25.9-17.8
	c10.5-4,21-6.5,34-6.5c13.8,0,25.9,2.4,36.4,8.1s18.6,12.1,25.1,21.8c6.5,8.9,11.3,19.4,14.6,30.7c1.6,11.3,2.4,22.7,1.6,35.6H246.8
	C246.8,166.7,251.6,178.8,258.1,185.3z M309.1,100.3c-5.7-5.7-14.6-8.9-25.1-8.9c-7.3,0-12.9,1.6-17.8,4s-8.1,5.7-11.3,8.9
	c-3.2,3.2-4.9,7.3-5.7,11.3s-1.6,7.3-1.6,10.5h72.8C318.8,114.1,314.7,106,309.1,100.3z M237.9,15.4h90.6v21.8h-90.6V15.4z"/>
</svg>
